<mxfile host="Electron" agent="Mozilla/5.0 (X11; Linux x86_64) AppleWebKit/537.36 (KHTML, like Gecko) draw.io/24.7.8 Chrome/128.0.6613.36 Electron/32.0.1 Safari/537.36" version="24.7.8" pages="3">
  <diagram name="Page-1" id="5lwStmEV-4-tHNbY_flZ">
    <mxGraphModel dx="2234" dy="1271" grid="0" gridSize="10" guides="0" tooltips="1" connect="1" arrows="1" fold="1" page="0" pageScale="1" pageWidth="850" pageHeight="1100" math="0" shadow="0">
      <root>
        <mxCell id="0" />
        <mxCell id="1" parent="0" />
        <mxCell id="lORMS2WyomaHc7jaPSRQ-12" value="" style="shape=cylinder3;whiteSpace=wrap;html=1;boundedLbl=1;backgroundOutline=1;size=15;rotation=-90;" vertex="1" parent="1">
          <mxGeometry x="381" y="739" width="215.5" height="235.5" as="geometry" />
        </mxCell>
        <mxCell id="ssCp2VfZ81utT5KtouX2-22" value="" style="shape=cylinder3;whiteSpace=wrap;html=1;boundedLbl=1;backgroundOutline=1;size=15;rotation=-90;" vertex="1" parent="1">
          <mxGeometry x="163.75" y="-133.75" width="120" height="320" as="geometry" />
        </mxCell>
        <mxCell id="ssCp2VfZ81utT5KtouX2-7" style="edgeStyle=orthogonalEdgeStyle;rounded=0;orthogonalLoop=1;jettySize=auto;html=1;exitX=0.83;exitY=0.5;exitDx=0;exitDy=0;exitPerimeter=0;" edge="1" parent="1" source="ssCp2VfZ81utT5KtouX2-1" target="ssCp2VfZ81utT5KtouX2-3">
          <mxGeometry relative="1" as="geometry" />
        </mxCell>
        <mxCell id="ssCp2VfZ81utT5KtouX2-1" value="" style="shape=mxgraph.cisco.computers_and_peripherals.pc;sketch=0;html=1;pointerEvents=1;dashed=0;fillColor=#036897;strokeColor=#ffffff;strokeWidth=2;verticalLabelPosition=bottom;verticalAlign=top;align=center;outlineConnect=0;" vertex="1" parent="1">
          <mxGeometry x="80" y="120" width="78" height="70" as="geometry" />
        </mxCell>
        <mxCell id="ssCp2VfZ81utT5KtouX2-2" value="blue-internet-host-student-6" style="text;html=1;align=center;verticalAlign=middle;resizable=0;points=[];autosize=1;strokeColor=none;fillColor=none;" vertex="1" parent="1">
          <mxGeometry x="34" y="190" width="170" height="30" as="geometry" />
        </mxCell>
        <mxCell id="ssCp2VfZ81utT5KtouX2-17" style="edgeStyle=orthogonalEdgeStyle;rounded=0;orthogonalLoop=1;jettySize=auto;html=1;exitX=0.83;exitY=0.5;exitDx=0;exitDy=0;exitPerimeter=0;entryX=0.16;entryY=0.5;entryDx=0;entryDy=0;entryPerimeter=0;" edge="1" parent="1" source="ssCp2VfZ81utT5KtouX2-3" target="ssCp2VfZ81utT5KtouX2-10">
          <mxGeometry relative="1" as="geometry">
            <mxPoint x="470" y="40" as="targetPoint" />
            <Array as="points">
              <mxPoint x="471" y="155" />
              <mxPoint x="471" y="35" />
            </Array>
          </mxGeometry>
        </mxCell>
        <mxCell id="ssCp2VfZ81utT5KtouX2-3" value="" style="shape=mxgraph.cisco.computers_and_peripherals.pc;sketch=0;html=1;pointerEvents=1;dashed=0;fillColor=#036897;strokeColor=#ffffff;strokeWidth=2;verticalLabelPosition=bottom;verticalAlign=top;align=center;outlineConnect=0;" vertex="1" parent="1">
          <mxGeometry x="320" y="120" width="78" height="70" as="geometry" />
        </mxCell>
        <mxCell id="ssCp2VfZ81utT5KtouX2-4" value="Atropia" style="text;html=1;align=center;verticalAlign=middle;resizable=0;points=[];autosize=1;strokeColor=none;fillColor=none;" vertex="1" parent="1">
          <mxGeometry x="329" y="190" width="60" height="30" as="geometry" />
        </mxCell>
        <mxCell id="ssCp2VfZ81utT5KtouX2-5" value="10.10.0.40" style="text;html=1;align=center;verticalAlign=middle;resizable=0;points=[];autosize=1;strokeColor=none;fillColor=none;" vertex="1" parent="1">
          <mxGeometry x="150" y="110" width="80" height="30" as="geometry" />
        </mxCell>
        <mxCell id="ssCp2VfZ81utT5KtouX2-6" value="10.50.41.243&lt;div&gt;22 (ssh)&lt;/div&gt;" style="text;html=1;align=center;verticalAlign=middle;resizable=0;points=[];autosize=1;strokeColor=none;fillColor=none;" vertex="1" parent="1">
          <mxGeometry x="240" y="105" width="88" height="41" as="geometry" />
        </mxCell>
        <mxCell id="ssCp2VfZ81utT5KtouX2-8" value="10.3.0.10&lt;div&gt;22 (ssh)&lt;/div&gt;" style="text;html=1;align=center;verticalAlign=middle;resizable=0;points=[];autosize=1;strokeColor=none;fillColor=none;" vertex="1" parent="1">
          <mxGeometry x="399" y="105" width="68" height="41" as="geometry" />
        </mxCell>
        <mxCell id="ssCp2VfZ81utT5KtouX2-9" value="10.3.0.1" style="text;html=1;align=center;verticalAlign=middle;resizable=0;points=[];autosize=1;strokeColor=none;fillColor=none;" vertex="1" parent="1">
          <mxGeometry x="460" y="-10" width="70" height="30" as="geometry" />
        </mxCell>
        <mxCell id="ssCp2VfZ81utT5KtouX2-10" value="" style="shape=mxgraph.cisco.computers_and_peripherals.pc;sketch=0;html=1;pointerEvents=1;dashed=0;fillColor=#036897;strokeColor=#ffffff;strokeWidth=2;verticalLabelPosition=bottom;verticalAlign=top;align=center;outlineConnect=0;" vertex="1" parent="1">
          <mxGeometry x="530" width="78" height="70" as="geometry" />
        </mxCell>
        <mxCell id="ssCp2VfZ81utT5KtouX2-11" value="10.3.0.27" style="text;html=1;align=center;verticalAlign=middle;resizable=0;points=[];autosize=1;strokeColor=none;fillColor=none;" vertex="1" parent="1">
          <mxGeometry x="480" y="110" width="70" height="30" as="geometry" />
        </mxCell>
        <mxCell id="ssCp2VfZ81utT5KtouX2-12" value="" style="shape=mxgraph.cisco.computers_and_peripherals.pc;sketch=0;html=1;pointerEvents=1;dashed=0;fillColor=#036897;strokeColor=#ffffff;strokeWidth=2;verticalLabelPosition=bottom;verticalAlign=top;align=center;outlineConnect=0;" vertex="1" parent="1">
          <mxGeometry x="530" y="120" width="78" height="70" as="geometry" />
        </mxCell>
        <mxCell id="ssCp2VfZ81utT5KtouX2-13" style="edgeStyle=orthogonalEdgeStyle;rounded=0;orthogonalLoop=1;jettySize=auto;html=1;exitX=0.83;exitY=0.5;exitDx=0;exitDy=0;exitPerimeter=0;entryX=0.16;entryY=0.5;entryDx=0;entryDy=0;entryPerimeter=0;" edge="1" parent="1" source="ssCp2VfZ81utT5KtouX2-3" target="ssCp2VfZ81utT5KtouX2-12">
          <mxGeometry relative="1" as="geometry" />
        </mxCell>
        <mxCell id="ssCp2VfZ81utT5KtouX2-14" value="Victoria&lt;div&gt;TCP 21/80&lt;/div&gt;" style="text;html=1;align=center;verticalAlign=middle;resizable=0;points=[];autosize=1;strokeColor=none;fillColor=none;" vertex="1" parent="1">
          <mxGeometry x="530" y="185" width="75" height="41" as="geometry" />
        </mxCell>
        <mxCell id="ssCp2VfZ81utT5KtouX2-15" value="Cortina&lt;div&gt;TCP 21/80&lt;/div&gt;" style="text;html=1;align=center;verticalAlign=middle;resizable=0;points=[];autosize=1;strokeColor=none;fillColor=none;" vertex="1" parent="1">
          <mxGeometry x="523" y="63" width="75" height="41" as="geometry" />
        </mxCell>
        <mxCell id="ssCp2VfZ81utT5KtouX2-18" value="" style="shape=cylinder3;whiteSpace=wrap;html=1;boundedLbl=1;backgroundOutline=1;size=15;rotation=-90;" vertex="1" parent="1">
          <mxGeometry x="396.75" y="507.25" width="215.5" height="235.5" as="geometry" />
        </mxCell>
        <mxCell id="ssCp2VfZ81utT5KtouX2-21" style="edgeStyle=orthogonalEdgeStyle;rounded=0;orthogonalLoop=1;jettySize=auto;html=1;" edge="1" parent="1" source="ssCp2VfZ81utT5KtouX2-20">
          <mxGeometry relative="1" as="geometry">
            <mxPoint x="110" y="255" as="targetPoint" />
          </mxGeometry>
        </mxCell>
        <mxCell id="ssCp2VfZ81utT5KtouX2-20" value="wget -r localhost:60601" style="text;html=1;align=center;verticalAlign=middle;resizable=0;points=[];autosize=1;strokeColor=none;fillColor=none;" vertex="1" parent="1">
          <mxGeometry x="-90" y="240" width="150" height="30" as="geometry" />
        </mxCell>
        <mxCell id="ssCp2VfZ81utT5KtouX2-23" value="ssh net6_student6@10.50.41.243 -D 9050" style="text;html=1;align=center;verticalAlign=middle;resizable=0;points=[];autosize=1;strokeColor=none;fillColor=none;" vertex="1" parent="1">
          <mxGeometry x="93" y="2" width="244" height="26" as="geometry" />
        </mxCell>
        <mxCell id="ssCp2VfZ81utT5KtouX2-24" value="proxychains wget -r ftp:10.3.0.1" style="text;html=1;align=center;verticalAlign=middle;resizable=0;points=[];autosize=1;strokeColor=none;fillColor=none;" vertex="1" parent="1">
          <mxGeometry x="-160" y="11.25" width="190" height="30" as="geometry" />
        </mxCell>
        <mxCell id="ssCp2VfZ81utT5KtouX2-25" style="edgeStyle=orthogonalEdgeStyle;rounded=0;orthogonalLoop=1;jettySize=auto;html=1;entryX=0.128;entryY=0.375;entryDx=0;entryDy=0;entryPerimeter=0;" edge="1" parent="1" source="lORMS2WyomaHc7jaPSRQ-20" target="ssCp2VfZ81utT5KtouX2-10">
          <mxGeometry relative="1" as="geometry" />
        </mxCell>
        <mxCell id="8TFv3OoPlM1-N74jB-lP-9" style="edgeStyle=orthogonalEdgeStyle;rounded=0;orthogonalLoop=1;jettySize=auto;html=1;exitX=0.83;exitY=0.5;exitDx=0;exitDy=0;exitPerimeter=0;" edge="1" parent="1" source="QjLj5B1Vu25J_cTfAaM0-1" target="8TFv3OoPlM1-N74jB-lP-6">
          <mxGeometry relative="1" as="geometry" />
        </mxCell>
        <mxCell id="lORMS2WyomaHc7jaPSRQ-2" style="edgeStyle=orthogonalEdgeStyle;rounded=0;orthogonalLoop=1;jettySize=auto;html=1;exitX=0.83;exitY=0.5;exitDx=0;exitDy=0;exitPerimeter=0;" edge="1" parent="1" source="QjLj5B1Vu25J_cTfAaM0-1" target="lORMS2WyomaHc7jaPSRQ-1">
          <mxGeometry relative="1" as="geometry">
            <mxPoint x="694" y="302" as="targetPoint" />
            <Array as="points">
              <mxPoint x="695" y="436" />
              <mxPoint x="695" y="299" />
            </Array>
          </mxGeometry>
        </mxCell>
        <mxCell id="QjLj5B1Vu25J_cTfAaM0-1" value="" style="shape=mxgraph.cisco.computers_and_peripherals.pc;sketch=0;html=1;pointerEvents=1;dashed=0;fillColor=#036897;strokeColor=#ffffff;strokeWidth=2;verticalLabelPosition=bottom;verticalAlign=top;align=center;outlineConnect=0;" vertex="1" parent="1">
          <mxGeometry x="539" y="401" width="78" height="70" as="geometry" />
        </mxCell>
        <mxCell id="QjLj5B1Vu25J_cTfAaM0-2" value="Pineland&lt;div&gt;telnet&lt;/div&gt;" style="text;html=1;align=center;verticalAlign=middle;resizable=0;points=[];autosize=1;strokeColor=none;fillColor=none;" vertex="1" parent="1">
          <mxGeometry x="546" y="466" width="65" height="41" as="geometry" />
        </mxCell>
        <mxCell id="QjLj5B1Vu25J_cTfAaM0-3" value="10.50.39.228" style="text;html=1;align=center;verticalAlign=middle;resizable=0;points=[];autosize=1;strokeColor=none;fillColor=none;" vertex="1" parent="1">
          <mxGeometry x="459" y="393" width="88" height="26" as="geometry" />
        </mxCell>
        <mxCell id="QjLj5B1Vu25J_cTfAaM0-4" value="ssh bill@155.39.88.17 -p 4567 -R 40600:localhost:22" style="text;html=1;align=center;verticalAlign=middle;resizable=0;points=[];;autosize=1;fontColor=#000000;strokeColor=#FFFFFF;labelBackgroundColor=#FFFFFF;" vertex="1" parent="1">
          <mxGeometry x="-446" y="347" width="300" height="20" as="geometry" />
        </mxCell>
        <mxCell id="GxIL4JgS7ShkU5iS6ZnA-2" value="" style="shape=cylinder3;whiteSpace=wrap;html=1;boundedLbl=1;backgroundOutline=1;size=15;rotation=-90;" vertex="1" parent="1">
          <mxGeometry x="296.25" y="78.75" width="120" height="452.5" as="geometry" />
        </mxCell>
        <mxCell id="ssCp2VfZ81utT5KtouX2-19" value="ssh net6_student6@10.51.41.243 -L 60601:10.3.0.27:80" style="text;html=1;align=center;verticalAlign=middle;resizable=0;points=[];autosize=1;strokeColor=none;fillColor=none;" vertex="1" parent="1">
          <mxGeometry x="142" y="247" width="320" height="30" as="geometry" />
        </mxCell>
        <mxCell id="GxIL4JgS7ShkU5iS6ZnA-3" value="ssh net6_student6@10.3.0.10 -R 60602:localhost:22" style="text;html=1;align=center;verticalAlign=middle;resizable=0;points=[];autosize=1;strokeColor=none;fillColor=none;" vertex="1" parent="1">
          <mxGeometry x="389" y="521" width="298" height="26" as="geometry" />
        </mxCell>
        <mxCell id="GxIL4JgS7ShkU5iS6ZnA-4" value="" style="shape=cylinder3;whiteSpace=wrap;html=1;boundedLbl=1;backgroundOutline=1;size=15;rotation=-90;" vertex="1" parent="1">
          <mxGeometry x="164.5" y="505.5" width="217" height="235.5" as="geometry" />
        </mxCell>
        <mxCell id="GxIL4JgS7ShkU5iS6ZnA-5" value="ssh net6_student6@10.50.41.243 -L 60603:localhost:60602" style="text;html=1;align=center;verticalAlign=middle;resizable=0;points=[];autosize=1;strokeColor=none;fillColor=none;" vertex="1" parent="1">
          <mxGeometry x="68" y="521" width="336" height="26" as="geometry" />
        </mxCell>
        <mxCell id="GxIL4JgS7ShkU5iS6ZnA-6" value="" style="shape=cylinder3;whiteSpace=wrap;html=1;boundedLbl=1;backgroundOutline=1;size=15;rotation=-90;" vertex="1" parent="1">
          <mxGeometry x="461.75" y="262.25" width="65" height="660" as="geometry" />
        </mxCell>
        <mxCell id="8TFv3OoPlM1-N74jB-lP-1" value="ssh net6_student6@localhost -p 60603 -L 60604:10.2.0.2:80" style="text;html=1;align=center;verticalAlign=middle;resizable=0;points=[];autosize=1;strokeColor=none;fillColor=none;" vertex="1" parent="1">
          <mxGeometry x="223" y="571" width="340" height="26" as="geometry" />
        </mxCell>
        <mxCell id="8TFv3OoPlM1-N74jB-lP-2" value="" style="shape=cylinder3;whiteSpace=wrap;html=1;boundedLbl=1;backgroundOutline=1;size=15;rotation=-90;" vertex="1" parent="1">
          <mxGeometry x="359" y="452" width="65" height="452.5" as="geometry" />
        </mxCell>
        <mxCell id="8TFv3OoPlM1-N74jB-lP-3" value="ssh net6_student6@localhost -p 60603 -D 9050" style="text;html=1;align=center;verticalAlign=middle;resizable=0;points=[];autosize=1;strokeColor=none;fillColor=none;" vertex="1" parent="1">
          <mxGeometry x="258" y="657" width="272" height="26" as="geometry" />
        </mxCell>
        <mxCell id="8TFv3OoPlM1-N74jB-lP-6" value="" style="shape=mxgraph.cisco.computers_and_peripherals.pc;sketch=0;html=1;pointerEvents=1;dashed=0;fillColor=#036897;strokeColor=#ffffff;strokeWidth=2;verticalLabelPosition=bottom;verticalAlign=top;align=center;outlineConnect=0;" vertex="1" parent="1">
          <mxGeometry x="774" y="401" width="78" height="70" as="geometry" />
        </mxCell>
        <mxCell id="8TFv3OoPlM1-N74jB-lP-7" value="10.2.0.2" style="text;html=1;align=center;verticalAlign=middle;resizable=0;points=[];autosize=1;strokeColor=none;fillColor=none;" vertex="1" parent="1">
          <mxGeometry x="724" y="388" width="61" height="26" as="geometry" />
        </mxCell>
        <mxCell id="8TFv3OoPlM1-N74jB-lP-8" value="&lt;div&gt;Mohammed&lt;/div&gt;&lt;div&gt;http (80)&lt;/div&gt;&lt;div&gt;ftp (21)&lt;/div&gt;" style="text;html=1;align=center;verticalAlign=middle;resizable=0;points=[];autosize=1;strokeColor=none;fillColor=none;" vertex="1" parent="1">
          <mxGeometry x="768" y="462" width="81" height="55" as="geometry" />
        </mxCell>
        <mxCell id="8TFv3OoPlM1-N74jB-lP-10" value="10.2.0.1" style="text;html=1;align=center;verticalAlign=middle;resizable=0;points=[];autosize=1;strokeColor=none;fillColor=none;" vertex="1" parent="1">
          <mxGeometry x="608" y="393" width="61" height="26" as="geometry" />
        </mxCell>
        <mxCell id="8TFv3OoPlM1-N74jB-lP-13" style="edgeStyle=orthogonalEdgeStyle;rounded=0;orthogonalLoop=1;jettySize=auto;html=1;" edge="1" parent="1" source="8TFv3OoPlM1-N74jB-lP-14">
          <mxGeometry relative="1" as="geometry">
            <mxPoint x="147" y="589" as="targetPoint" />
          </mxGeometry>
        </mxCell>
        <mxCell id="8TFv3OoPlM1-N74jB-lP-14" value="wget -r localhost:60604" style="text;html=1;align=center;verticalAlign=middle;resizable=0;points=[];autosize=1;strokeColor=none;fillColor=none;" vertex="1" parent="1">
          <mxGeometry x="-49" y="576" width="142" height="26" as="geometry" />
        </mxCell>
        <mxCell id="lORMS2WyomaHc7jaPSRQ-1" value="" style="shape=mxgraph.cisco.computers_and_peripherals.pc;sketch=0;html=1;pointerEvents=1;dashed=0;fillColor=#036897;strokeColor=#ffffff;strokeWidth=2;verticalLabelPosition=bottom;verticalAlign=top;align=center;outlineConnect=0;" vertex="1" parent="1">
          <mxGeometry x="774" y="264" width="78" height="70" as="geometry" />
        </mxCell>
        <mxCell id="lORMS2WyomaHc7jaPSRQ-7" value="Atlantica" style="text;html=1;align=center;verticalAlign=middle;resizable=0;points=[];autosize=1;strokeColor=none;fillColor=none;" vertex="1" parent="1">
          <mxGeometry x="780" y="335" width="64" height="26" as="geometry" />
        </mxCell>
        <mxCell id="lORMS2WyomaHc7jaPSRQ-8" value="10.2.0.3" style="text;html=1;align=center;verticalAlign=middle;resizable=0;points=[];autosize=1;strokeColor=none;fillColor=none;" vertex="1" parent="1">
          <mxGeometry x="720" y="261" width="61" height="26" as="geometry" />
        </mxCell>
        <mxCell id="lORMS2WyomaHc7jaPSRQ-10" value="" style="shape=cylinder3;whiteSpace=wrap;html=1;boundedLbl=1;backgroundOutline=1;size=15;rotation=-90;" vertex="1" parent="1">
          <mxGeometry x="614" y="741" width="215.5" height="235.5" as="geometry" />
        </mxCell>
        <mxCell id="lORMS2WyomaHc7jaPSRQ-11" value="ssh net6_student6@10.2.0.1 -R 60606:localhost:22" style="text;html=1;align=center;verticalAlign=middle;resizable=0;points=[];autosize=1;strokeColor=none;fillColor=none;" vertex="1" parent="1">
          <mxGeometry x="569" y="781" width="292" height="26" as="geometry" />
        </mxCell>
        <mxCell id="lORMS2WyomaHc7jaPSRQ-14" value="" style="shape=cylinder3;whiteSpace=wrap;html=1;boundedLbl=1;backgroundOutline=1;size=15;rotation=-90;" vertex="1" parent="1">
          <mxGeometry x="147" y="737" width="215.5" height="235.5" as="geometry" />
        </mxCell>
        <mxCell id="lORMS2WyomaHc7jaPSRQ-13" value="ssh net6_student6@10.3.0.10 -R 60607:localhost:60606" style="text;html=1;align=center;verticalAlign=middle;resizable=0;points=[];autosize=1;strokeColor=none;fillColor=none;" vertex="1" parent="1">
          <mxGeometry x="296" y="766" width="318" height="26" as="geometry" />
        </mxCell>
        <mxCell id="lORMS2WyomaHc7jaPSRQ-15" value="ssh net6_student6@10.50.41.243 -L 60608:localhost:60607" style="text;html=1;align=center;verticalAlign=middle;resizable=0;points=[];autosize=1;strokeColor=none;fillColor=none;" vertex="1" parent="1">
          <mxGeometry x="138" y="750" width="336" height="26" as="geometry" />
        </mxCell>
        <mxCell id="lORMS2WyomaHc7jaPSRQ-16" value="" style="shape=cylinder3;whiteSpace=wrap;html=1;boundedLbl=1;backgroundOutline=1;size=15;rotation=-90;" vertex="1" parent="1">
          <mxGeometry x="476.5" y="524.5" width="65" height="683" as="geometry" />
        </mxCell>
        <mxCell id="lORMS2WyomaHc7jaPSRQ-17" value="ssh net6_student6@localhost -p 60608 -D 9050" style="text;html=1;align=center;verticalAlign=middle;resizable=0;points=[];autosize=1;strokeColor=none;fillColor=none;" vertex="1" parent="1">
          <mxGeometry x="232" y="836" width="272" height="26" as="geometry" />
        </mxCell>
        <mxCell id="lORMS2WyomaHc7jaPSRQ-18" value="" style="verticalLabelPosition=bottom;verticalAlign=top;html=1;shape=mxgraph.basic.x" vertex="1" parent="1">
          <mxGeometry x="174" y="817" width="100" height="100" as="geometry" />
        </mxCell>
        <mxCell id="lORMS2WyomaHc7jaPSRQ-19" value="" style="verticalLabelPosition=bottom;verticalAlign=top;html=1;shape=mxgraph.basic.x" vertex="1" parent="1">
          <mxGeometry x="169" y="630" width="100" height="100" as="geometry" />
        </mxCell>
        <mxCell id="lORMS2WyomaHc7jaPSRQ-21" value="" style="edgeStyle=orthogonalEdgeStyle;rounded=0;orthogonalLoop=1;jettySize=auto;html=1;entryX=0.128;entryY=0.375;entryDx=0;entryDy=0;entryPerimeter=0;" edge="1" parent="1" source="ssCp2VfZ81utT5KtouX2-24" target="lORMS2WyomaHc7jaPSRQ-20">
          <mxGeometry relative="1" as="geometry">
            <mxPoint x="30" y="26" as="sourcePoint" />
            <mxPoint x="540" y="26" as="targetPoint" />
          </mxGeometry>
        </mxCell>
        <mxCell id="lORMS2WyomaHc7jaPSRQ-20" value="" style="verticalLabelPosition=bottom;verticalAlign=top;html=1;shape=mxgraph.basic.x" vertex="1" parent="1">
          <mxGeometry x="56" y="-31" width="100" height="100" as="geometry" />
        </mxCell>
      </root>
    </mxGraphModel>
  </diagram>
  <diagram id="b-eNUmaqgKxDumLwexBE" name="Page-2">
    <mxGraphModel dx="1834" dy="1271" grid="0" gridSize="10" guides="1" tooltips="1" connect="1" arrows="1" fold="1" page="0" pageScale="1" pageWidth="850" pageHeight="1100" math="0" shadow="0">
      <root>
        <mxCell id="0" />
        <mxCell id="1" parent="0" />
        <mxCell id="MhArIfeLx1pieekaY4P2-1" value="" style="shape=cylinder3;whiteSpace=wrap;html=1;boundedLbl=1;backgroundOutline=1;size=15;rotation=-90;" vertex="1" parent="1">
          <mxGeometry x="163.75" y="-133.75" width="120" height="320" as="geometry" />
        </mxCell>
        <mxCell id="MhArIfeLx1pieekaY4P2-2" style="edgeStyle=orthogonalEdgeStyle;rounded=0;orthogonalLoop=1;jettySize=auto;html=1;exitX=0.83;exitY=0.5;exitDx=0;exitDy=0;exitPerimeter=0;" edge="1" parent="1" source="MhArIfeLx1pieekaY4P2-3" target="MhArIfeLx1pieekaY4P2-6">
          <mxGeometry relative="1" as="geometry" />
        </mxCell>
        <mxCell id="MhArIfeLx1pieekaY4P2-3" value="" style="shape=mxgraph.cisco.computers_and_peripherals.pc;sketch=0;html=1;pointerEvents=1;dashed=0;fillColor=#036897;strokeColor=#ffffff;strokeWidth=2;verticalLabelPosition=bottom;verticalAlign=top;align=center;outlineConnect=0;" vertex="1" parent="1">
          <mxGeometry x="80" y="120" width="78" height="70" as="geometry" />
        </mxCell>
        <mxCell id="MhArIfeLx1pieekaY4P2-4" value="blue-internet-host-student-6" style="text;html=1;align=center;verticalAlign=middle;resizable=0;points=[];autosize=1;strokeColor=none;fillColor=none;" vertex="1" parent="1">
          <mxGeometry x="34" y="190" width="170" height="30" as="geometry" />
        </mxCell>
        <mxCell id="MhArIfeLx1pieekaY4P2-5" style="edgeStyle=orthogonalEdgeStyle;rounded=0;orthogonalLoop=1;jettySize=auto;html=1;exitX=0.83;exitY=0.5;exitDx=0;exitDy=0;exitPerimeter=0;entryX=0.16;entryY=0.5;entryDx=0;entryDy=0;entryPerimeter=0;" edge="1" parent="1" source="MhArIfeLx1pieekaY4P2-6" target="MhArIfeLx1pieekaY4P2-12">
          <mxGeometry relative="1" as="geometry">
            <mxPoint x="470" y="40" as="targetPoint" />
            <Array as="points">
              <mxPoint x="471" y="155" />
              <mxPoint x="471" y="35" />
            </Array>
          </mxGeometry>
        </mxCell>
        <mxCell id="MhArIfeLx1pieekaY4P2-6" value="" style="shape=mxgraph.cisco.computers_and_peripherals.pc;sketch=0;html=1;pointerEvents=1;dashed=0;fillColor=#036897;strokeColor=#ffffff;strokeWidth=2;verticalLabelPosition=bottom;verticalAlign=top;align=center;outlineConnect=0;" vertex="1" parent="1">
          <mxGeometry x="320" y="120" width="78" height="70" as="geometry" />
        </mxCell>
        <mxCell id="MhArIfeLx1pieekaY4P2-7" value="Pineland&lt;div&gt;telnet&lt;/div&gt;" style="text;html=1;align=center;verticalAlign=middle;resizable=0;points=[];autosize=1;strokeColor=none;fillColor=none;" vertex="1" parent="1">
          <mxGeometry x="327" y="185" width="65" height="41" as="geometry" />
        </mxCell>
        <mxCell id="MhArIfeLx1pieekaY4P2-8" value="10.10.0.40" style="text;html=1;align=center;verticalAlign=middle;resizable=0;points=[];autosize=1;strokeColor=none;fillColor=none;" vertex="1" parent="1">
          <mxGeometry x="150" y="110" width="80" height="30" as="geometry" />
        </mxCell>
        <mxCell id="MhArIfeLx1pieekaY4P2-9" value="10.50.39.228" style="text;html=1;align=center;verticalAlign=middle;resizable=0;points=[];autosize=1;strokeColor=none;fillColor=none;" vertex="1" parent="1">
          <mxGeometry x="240" y="112" width="88" height="26" as="geometry" />
        </mxCell>
        <mxCell id="MhArIfeLx1pieekaY4P2-10" value="10.2.0.1" style="text;html=1;align=center;verticalAlign=middle;resizable=0;points=[];autosize=1;strokeColor=none;fillColor=none;" vertex="1" parent="1">
          <mxGeometry x="403" y="112" width="61" height="26" as="geometry" />
        </mxCell>
        <mxCell id="MhArIfeLx1pieekaY4P2-11" value="10.3.0.1" style="text;html=1;align=center;verticalAlign=middle;resizable=0;points=[];autosize=1;strokeColor=none;fillColor=none;" vertex="1" parent="1">
          <mxGeometry x="460" y="-10" width="70" height="30" as="geometry" />
        </mxCell>
        <mxCell id="MhArIfeLx1pieekaY4P2-12" value="" style="shape=mxgraph.cisco.computers_and_peripherals.pc;sketch=0;html=1;pointerEvents=1;dashed=0;fillColor=#036897;strokeColor=#ffffff;strokeWidth=2;verticalLabelPosition=bottom;verticalAlign=top;align=center;outlineConnect=0;" vertex="1" parent="1">
          <mxGeometry x="530" width="78" height="70" as="geometry" />
        </mxCell>
        <mxCell id="MhArIfeLx1pieekaY4P2-13" value="10.3.0.27" style="text;html=1;align=center;verticalAlign=middle;resizable=0;points=[];autosize=1;strokeColor=none;fillColor=none;" vertex="1" parent="1">
          <mxGeometry x="480" y="110" width="70" height="30" as="geometry" />
        </mxCell>
        <mxCell id="MhArIfeLx1pieekaY4P2-14" value="" style="shape=mxgraph.cisco.computers_and_peripherals.pc;sketch=0;html=1;pointerEvents=1;dashed=0;fillColor=#036897;strokeColor=#ffffff;strokeWidth=2;verticalLabelPosition=bottom;verticalAlign=top;align=center;outlineConnect=0;" vertex="1" parent="1">
          <mxGeometry x="530" y="120" width="78" height="70" as="geometry" />
        </mxCell>
        <mxCell id="MhArIfeLx1pieekaY4P2-15" style="edgeStyle=orthogonalEdgeStyle;rounded=0;orthogonalLoop=1;jettySize=auto;html=1;exitX=0.83;exitY=0.5;exitDx=0;exitDy=0;exitPerimeter=0;entryX=0.16;entryY=0.5;entryDx=0;entryDy=0;entryPerimeter=0;" edge="1" parent="1" source="MhArIfeLx1pieekaY4P2-6" target="MhArIfeLx1pieekaY4P2-14">
          <mxGeometry relative="1" as="geometry" />
        </mxCell>
        <mxCell id="MhArIfeLx1pieekaY4P2-16" value="Victoria&lt;div&gt;TCP 80&lt;/div&gt;" style="text;html=1;align=center;verticalAlign=middle;resizable=0;points=[];autosize=1;strokeColor=none;fillColor=none;" vertex="1" parent="1">
          <mxGeometry x="537" y="185" width="60" height="40" as="geometry" />
        </mxCell>
        <mxCell id="MhArIfeLx1pieekaY4P2-17" value="Cortina&lt;div&gt;TCP 23&lt;/div&gt;" style="text;html=1;align=center;verticalAlign=middle;resizable=0;points=[];autosize=1;strokeColor=none;fillColor=none;" vertex="1" parent="1">
          <mxGeometry x="530" y="63" width="60" height="40" as="geometry" />
        </mxCell>
        <mxCell id="MhArIfeLx1pieekaY4P2-18" value="" style="shape=cylinder3;whiteSpace=wrap;html=1;boundedLbl=1;backgroundOutline=1;size=15;rotation=-90;" vertex="1" parent="1">
          <mxGeometry x="286.25" y="68.75" width="120" height="452.5" as="geometry" />
        </mxCell>
        <mxCell id="MhArIfeLx1pieekaY4P2-19" value="ssh net6_student6@10.51.41.243 -L 60601:10.3.0.27:80" style="text;html=1;align=center;verticalAlign=middle;resizable=0;points=[];autosize=1;strokeColor=none;fillColor=none;" vertex="1" parent="1">
          <mxGeometry x="124" y="230" width="320" height="30" as="geometry" />
        </mxCell>
        <mxCell id="MhArIfeLx1pieekaY4P2-20" style="edgeStyle=orthogonalEdgeStyle;rounded=0;orthogonalLoop=1;jettySize=auto;html=1;" edge="1" parent="1" source="MhArIfeLx1pieekaY4P2-21">
          <mxGeometry relative="1" as="geometry">
            <mxPoint x="110" y="255" as="targetPoint" />
          </mxGeometry>
        </mxCell>
        <mxCell id="MhArIfeLx1pieekaY4P2-21" value="wget -r localhost:60601" style="text;html=1;align=center;verticalAlign=middle;resizable=0;points=[];autosize=1;strokeColor=none;fillColor=none;" vertex="1" parent="1">
          <mxGeometry x="-90" y="240" width="150" height="30" as="geometry" />
        </mxCell>
        <mxCell id="MhArIfeLx1pieekaY4P2-22" value="ssh net6_student6@10.51.41.243 -D 9050" style="text;html=1;align=center;verticalAlign=middle;resizable=0;points=[];autosize=1;strokeColor=none;fillColor=none;" vertex="1" parent="1">
          <mxGeometry x="90" width="250" height="30" as="geometry" />
        </mxCell>
        <mxCell id="MhArIfeLx1pieekaY4P2-23" value="proxychains wget -r ftp:10.3.0.1" style="text;html=1;align=center;verticalAlign=middle;resizable=0;points=[];autosize=1;strokeColor=none;fillColor=none;" vertex="1" parent="1">
          <mxGeometry x="-160" y="11.25" width="190" height="30" as="geometry" />
        </mxCell>
        <mxCell id="MhArIfeLx1pieekaY4P2-24" style="edgeStyle=orthogonalEdgeStyle;rounded=0;orthogonalLoop=1;jettySize=auto;html=1;entryX=0.128;entryY=0.375;entryDx=0;entryDy=0;entryPerimeter=0;" edge="1" parent="1" source="MhArIfeLx1pieekaY4P2-23" target="MhArIfeLx1pieekaY4P2-12">
          <mxGeometry relative="1" as="geometry" />
        </mxCell>
        <mxCell id="I7oJ_DLZdPDX8gPf8Jf4-1" value="ssh bill@155.39.88.17 -p 4567 -R 40600:localhost:22" style="text;html=1;align=center;verticalAlign=middle;resizable=0;points=[];;autosize=1;fontColor=#000000;strokeColor=#FFFFFF;labelBackgroundColor=#FFFFFF;" vertex="1" parent="1">
          <mxGeometry x="150" y="451" width="300" height="20" as="geometry" />
        </mxCell>
      </root>
    </mxGraphModel>
  </diagram>
  <diagram id="J6q-UD7ixWY-vkbZMnwJ" name="Page-3">
    <mxGraphModel dx="3649" dy="4044" grid="0" gridSize="10" guides="1" tooltips="1" connect="1" arrows="1" fold="1" page="0" pageScale="1" pageWidth="850" pageHeight="1100" math="0" shadow="0">
      <root>
        <mxCell id="0" />
        <mxCell id="1" parent="0" />
        <mxCell id="suc87e04z3GdZBgYt57A-1" value="" style="shape=cylinder;whiteSpace=wrap;html=1;boundedLbl=1;backgroundOutline=1;fillColor=none;gradientColor=none;fontColor=#000000;strokeColor=#FFFFFF;rotation=-90;labelBackgroundColor=#FFFFFF;" vertex="1" parent="1">
          <mxGeometry x="-315" y="-2362" width="158" height="1330" as="geometry" />
        </mxCell>
        <mxCell id="suc87e04z3GdZBgYt57A-2" value="" style="shape=cylinder;whiteSpace=wrap;html=1;boundedLbl=1;backgroundOutline=1;fillColor=none;gradientColor=none;fontColor=#000000;strokeColor=#FFFFFF;rotation=-90;labelBackgroundColor=#FFFFFF;" vertex="1" parent="1">
          <mxGeometry x="-940" y="-2303" width="630" height="630" as="geometry" />
        </mxCell>
        <mxCell id="suc87e04z3GdZBgYt57A-3" value="Text" style="text;html=1;align=center;verticalAlign=middle;resizable=0;points=[];;autosize=1;strokeColor=#FFFFFF;labelBackgroundColor=#FFFFFF;" vertex="1" parent="1">
          <mxGeometry x="-107" y="-1519" width="40" height="20" as="geometry" />
        </mxCell>
        <mxCell id="suc87e04z3GdZBgYt57A-4" value="ssh jack@localhost -p 1111 -L 2222:142.16.8.41:4567" style="text;html=1;align=center;verticalAlign=middle;resizable=0;points=[];;autosize=1;fontColor=#000000;strokeColor=#FFFFFF;labelBackgroundColor=#FFFFFF;" vertex="1" parent="1">
          <mxGeometry x="-796" y="-2264" width="300" height="20" as="geometry" />
        </mxCell>
        <mxCell id="suc87e04z3GdZBgYt57A-5" value="" style="shape=cylinder;whiteSpace=wrap;html=1;boundedLbl=1;backgroundOutline=1;fillColor=none;gradientColor=none;fontColor=#000000;strokeColor=#FFFFFF;rotation=-90;labelBackgroundColor=#FFFFFF;" vertex="1" parent="1">
          <mxGeometry x="-360" y="-2722" width="230" height="1219" as="geometry" />
        </mxCell>
        <mxCell id="suc87e04z3GdZBgYt57A-6" value="ssh bill@localhost -p 2222 -L 3333:155.39.88.21:23" style="text;html=1;align=center;verticalAlign=middle;resizable=0;points=[];;autosize=1;fontColor=#000000;strokeColor=#FFFFFF;labelBackgroundColor=#FFFFFF;" vertex="1" parent="1">
          <mxGeometry x="-776.5" y="-2220" width="290" height="20" as="geometry" />
        </mxCell>
        <mxCell id="suc87e04z3GdZBgYt57A-7" value="&lt;div&gt;&lt;span style=&quot;color: rgb(0, 0, 0);&quot;&gt;bill&lt;/span&gt;&lt;/div&gt;&lt;div&gt;&lt;span style=&quot;color: rgb(0, 0, 0);&quot;&gt;Ports: 21, 80, 4567&lt;/span&gt;&lt;br&gt;&lt;/div&gt;" style="whiteSpace=wrap;html=1;fillColor=none;align=left;verticalAlign=top;strokeColor=#FFFFFF;labelBackgroundColor=#FFFFFF;" vertex="1" parent="1">
          <mxGeometry x="-39" y="-2348" width="100" height="45" as="geometry" />
        </mxCell>
        <mxCell id="suc87e04z3GdZBgYt57A-8" style="edgeStyle=none;rounded=0;orthogonalLoop=1;jettySize=auto;html=1;strokeColor=#FFFFFF;fontColor=#000000;labelBackgroundColor=#FFFFFF;" edge="1" parent="1" source="suc87e04z3GdZBgYt57A-9" target="suc87e04z3GdZBgYt57A-11">
          <mxGeometry relative="1" as="geometry" />
        </mxCell>
        <mxCell id="suc87e04z3GdZBgYt57A-9" value="" style="points=[];aspect=fixed;html=1;align=center;shadow=0;dashed=0;image;image=img/lib/allied_telesis/computer_and_terminals/Personal_Computer.svg;strokeColor=#FFFFFF;labelBackgroundColor=#FFFFFF;" vertex="1" parent="1">
          <mxGeometry x="-40" y="-2410" width="45.6" height="61.800000000000004" as="geometry" />
        </mxCell>
        <mxCell id="suc87e04z3GdZBgYt57A-10" value="&lt;div&gt;&lt;span style=&quot;color: rgb(0, 0, 0);&quot;&gt;brian&lt;/span&gt;&lt;/div&gt;&lt;div&gt;&lt;span style=&quot;color: rgb(0, 0, 0);&quot;&gt;Ports: 21, 23 80&lt;/span&gt;&lt;br&gt;&lt;/div&gt;" style="whiteSpace=wrap;html=1;fillColor=none;align=left;verticalAlign=top;strokeColor=#FFFFFF;labelBackgroundColor=#FFFFFF;" vertex="1" parent="1">
          <mxGeometry x="260" y="-2338" width="100" height="45" as="geometry" />
        </mxCell>
        <mxCell id="suc87e04z3GdZBgYt57A-11" value="" style="points=[];aspect=fixed;html=1;align=center;shadow=0;dashed=0;image;image=img/lib/allied_telesis/computer_and_terminals/Personal_Computer.svg;strokeColor=#FFFFFF;labelBackgroundColor=#FFFFFF;" vertex="1" parent="1">
          <mxGeometry x="279.5" y="-2410" width="45.6" height="61.800000000000004" as="geometry" />
        </mxCell>
        <mxCell id="suc87e04z3GdZBgYt57A-12" value="155.39.88.17" style="text;html=1;align=center;verticalAlign=middle;resizable=0;points=[];;autosize=1;fontColor=#000000;strokeColor=#FFFFFF;labelBackgroundColor=#FFFFFF;" vertex="1" parent="1">
          <mxGeometry x="5.5" y="-2410" width="90" height="20" as="geometry" />
        </mxCell>
        <mxCell id="suc87e04z3GdZBgYt57A-13" value="" style="shape=cylinder;whiteSpace=wrap;html=1;boundedLbl=1;backgroundOutline=1;fillColor=none;gradientColor=none;fontColor=#000000;strokeColor=#FFFFFF;rotation=-90;labelBackgroundColor=#FFFFFF;" vertex="1" parent="1">
          <mxGeometry x="102" y="-2030" width="158" height="320" as="geometry" />
        </mxCell>
        <mxCell id="suc87e04z3GdZBgYt57A-14" value="ssh bill@155.39.88.17 -p 4567 -R 40600:localhost:22" style="text;html=1;align=center;verticalAlign=middle;resizable=0;points=[];;autosize=1;fontColor=#000000;strokeColor=#FFFFFF;labelBackgroundColor=#FFFFFF;" vertex="1" parent="1">
          <mxGeometry x="39.5" y="-1940" width="300" height="20" as="geometry" />
        </mxCell>
        <mxCell id="suc87e04z3GdZBgYt57A-15" style="edgeStyle=none;rounded=0;orthogonalLoop=1;jettySize=auto;html=1;entryX=0;entryY=0.629;entryDx=0;entryDy=0;entryPerimeter=0;strokeColor=#FFFFFF;fontColor=#000000;labelBackgroundColor=#FFFFFF;" edge="1" parent="1" source="suc87e04z3GdZBgYt57A-16" target="suc87e04z3GdZBgYt57A-34">
          <mxGeometry relative="1" as="geometry" />
        </mxCell>
        <mxCell id="suc87e04z3GdZBgYt57A-16" value="" style="points=[];aspect=fixed;html=1;align=center;shadow=0;dashed=0;image;image=img/lib/allied_telesis/computer_and_terminals/Personal_Computer.svg;strokeColor=#FFFFFF;labelBackgroundColor=#FFFFFF;" vertex="1" parent="1">
          <mxGeometry x="-947" y="-2410" width="45.6" height="61.800000000000004" as="geometry" />
        </mxCell>
        <mxCell id="suc87e04z3GdZBgYt57A-17" value="blue-internet-host-student-6&lt;br&gt;10.10.0.40" style="text;html=1;align=center;verticalAlign=middle;resizable=0;points=[];;autosize=1;fontColor=#000000;strokeColor=#FFFFFF;labelBackgroundColor=#FFFFFF;" vertex="1" parent="1">
          <mxGeometry x="-1000" y="-2338" width="160" height="30" as="geometry" />
        </mxCell>
        <mxCell id="suc87e04z3GdZBgYt57A-18" style="edgeStyle=none;rounded=0;orthogonalLoop=1;jettySize=auto;html=1;strokeColor=#FFFFFF;fontColor=#000000;labelBackgroundColor=#FFFFFF;" edge="1" parent="1" source="suc87e04z3GdZBgYt57A-39" target="suc87e04z3GdZBgYt57A-9">
          <mxGeometry relative="1" as="geometry" />
        </mxCell>
        <mxCell id="suc87e04z3GdZBgYt57A-19" value="142.16.8.41" style="text;html=1;align=center;verticalAlign=middle;resizable=0;points=[];;autosize=1;fontColor=#000000;strokeColor=#FFFFFF;labelBackgroundColor=#FFFFFF;" vertex="1" parent="1">
          <mxGeometry x="-123" y="-2410" width="80" height="20" as="geometry" />
        </mxCell>
        <mxCell id="suc87e04z3GdZBgYt57A-20" value="155.39.88.21" style="text;html=1;align=center;verticalAlign=middle;resizable=0;points=[];;autosize=1;fontColor=#000000;strokeColor=#FFFFFF;labelBackgroundColor=#FFFFFF;" vertex="1" parent="1">
          <mxGeometry x="195" y="-2410" width="90" height="20" as="geometry" />
        </mxCell>
        <mxCell id="suc87e04z3GdZBgYt57A-21" value="" style="shape=cylinder;whiteSpace=wrap;html=1;boundedLbl=1;backgroundOutline=1;fillColor=none;gradientColor=none;fontColor=#000000;strokeColor=#FFFFFF;rotation=-90;labelBackgroundColor=#FFFFFF;" vertex="1" parent="1">
          <mxGeometry x="-499" y="-2362" width="158" height="980" as="geometry" />
        </mxCell>
        <mxCell id="suc87e04z3GdZBgYt57A-22" value="" style="shape=cylinder;whiteSpace=wrap;html=1;boundedLbl=1;backgroundOutline=1;fillColor=none;gradientColor=none;fontColor=#000000;strokeColor=#FFFFFF;rotation=-90;labelBackgroundColor=#FFFFFF;" vertex="1" parent="1">
          <mxGeometry x="-171" y="-2292" width="158" height="1547" as="geometry" />
        </mxCell>
        <mxCell id="suc87e04z3GdZBgYt57A-23" value="&lt;div&gt;&lt;font color=&quot;#000000&quot;&gt;&lt;span style=&quot;&quot;&gt;bob&lt;/span&gt;&lt;/font&gt;&lt;/div&gt;&lt;div&gt;&lt;span style=&quot;color: rgb(0, 0, 0);&quot;&gt;Ports: 21, 23 80&lt;/span&gt;&lt;br&gt;&lt;/div&gt;" style="whiteSpace=wrap;html=1;fillColor=none;align=left;verticalAlign=top;strokeColor=#FFFFFF;labelBackgroundColor=#FFFFFF;" vertex="1" parent="1">
          <mxGeometry x="580" y="-2335" width="100" height="45" as="geometry" />
        </mxCell>
        <mxCell id="suc87e04z3GdZBgYt57A-24" value="" style="points=[];aspect=fixed;html=1;align=center;shadow=0;dashed=0;image;image=img/lib/allied_telesis/computer_and_terminals/Personal_Computer.svg;strokeColor=#FFFFFF;labelBackgroundColor=#FFFFFF;" vertex="1" parent="1">
          <mxGeometry x="599.5" y="-2407" width="45.6" height="61.800000000000004" as="geometry" />
        </mxCell>
        <mxCell id="suc87e04z3GdZBgYt57A-25" style="edgeStyle=none;rounded=0;orthogonalLoop=1;jettySize=auto;html=1;strokeColor=#FFFFFF;fontColor=#000000;labelBackgroundColor=#FFFFFF;" edge="1" parent="1">
          <mxGeometry relative="1" as="geometry">
            <mxPoint x="324.10000000000036" y="-2380.6" as="sourcePoint" />
            <mxPoint x="598" y="-2380.6" as="targetPoint" />
          </mxGeometry>
        </mxCell>
        <mxCell id="suc87e04z3GdZBgYt57A-26" value="ssh brian@localhost -p 5555 -D 9050" style="text;html=1;align=center;verticalAlign=middle;resizable=0;points=[];;autosize=1;fontColor=#000000;strokeColor=#FFFFFF;labelBackgroundColor=#FFFFFF;" vertex="1" parent="1">
          <mxGeometry x="-1210" y="-1790" width="210" height="20" as="geometry" />
        </mxCell>
        <mxCell id="suc87e04z3GdZBgYt57A-27" value="ssh brian@localhost -p 5555 -L 6666:150.21.99.8:6789" style="text;html=1;align=center;verticalAlign=middle;resizable=0;points=[];;autosize=1;fontColor=#000000;strokeColor=#FFFFFF;labelBackgroundColor=#FFFFFF;" vertex="1" parent="1">
          <mxGeometry x="-796" y="-1590" width="310" height="20" as="geometry" />
        </mxCell>
        <mxCell id="suc87e04z3GdZBgYt57A-28" value="150.21.99.8" style="text;html=1;align=center;verticalAlign=middle;resizable=0;points=[];;autosize=1;fontColor=#000000;strokeColor=#FFFFFF;labelBackgroundColor=#FFFFFF;" vertex="1" parent="1">
          <mxGeometry x="552" y="-2438" width="80" height="20" as="geometry" />
        </mxCell>
        <mxCell id="suc87e04z3GdZBgYt57A-29" value="104.16.181.1" style="text;html=1;align=center;verticalAlign=middle;resizable=0;points=[];;autosize=1;fontColor=#000000;strokeColor=#FFFFFF;labelBackgroundColor=#FFFFFF;" vertex="1" parent="1">
          <mxGeometry x="-577" y="-2414" width="90" height="20" as="geometry" />
        </mxCell>
        <mxCell id="suc87e04z3GdZBgYt57A-30" value="150.21.99.7" style="text;html=1;align=center;verticalAlign=middle;resizable=0;points=[];;autosize=1;fontColor=#000000;strokeColor=#FFFFFF;labelBackgroundColor=#FFFFFF;" vertex="1" parent="1">
          <mxGeometry x="315" y="-2414" width="80" height="20" as="geometry" />
        </mxCell>
        <mxCell id="suc87e04z3GdZBgYt57A-31" value="" style="group;strokeColor=#FFFFFF;labelBackgroundColor=#FFFFFF;" vertex="1" connectable="0" parent="1">
          <mxGeometry x="-631.5" y="-2420" width="411.5" height="220" as="geometry" />
        </mxCell>
        <object label="" placeholders="1" deviceType="" Hostname="" InterfaceType="" InterfaceIP="" SubnetMaskCIDR="" RoutingProtocol="" IPnetwork="" NetworkName="" OpenPorts="" OStype="" OSVersion="" id="suc87e04z3GdZBgYt57A-32">
          <mxCell style="group;labelBackgroundColor=#FFFFFF;" vertex="1" connectable="0" parent="suc87e04z3GdZBgYt57A-31">
            <mxGeometry x="20" width="401.5" height="218" as="geometry" />
          </mxCell>
        </object>
        <mxCell id="suc87e04z3GdZBgYt57A-33" style="edgeStyle=none;rounded=0;orthogonalLoop=1;jettySize=auto;html=1;strokeColor=#000000;fontColor=#000000;labelBackgroundColor=#FFFFFF;" edge="1" parent="suc87e04z3GdZBgYt57A-32" source="suc87e04z3GdZBgYt57A-34" target="suc87e04z3GdZBgYt57A-37">
          <mxGeometry relative="1" as="geometry" />
        </mxCell>
        <mxCell id="suc87e04z3GdZBgYt57A-34" value="" style="points=[];aspect=fixed;html=1;align=center;shadow=0;dashed=0;image;image=img/lib/allied_telesis/computer_and_terminals/Personal_Computer.svg;labelBackgroundColor=#FFFFFF;" vertex="1" parent="suc87e04z3GdZBgYt57A-32">
          <mxGeometry width="45.6" height="61.800000000000004" as="geometry" />
        </mxCell>
        <mxCell id="suc87e04z3GdZBgYt57A-35" value="&lt;div&gt;&lt;font color=&quot;#000000&quot;&gt;&lt;span style=&quot;&quot;&gt;john&lt;/span&gt;&lt;/font&gt;&lt;/div&gt;&lt;div&gt;&lt;span style=&quot;color: rgb(0, 0, 0);&quot;&gt;Ports: 21, 22, 80&lt;/span&gt;&lt;br&gt;&lt;/div&gt;" style="whiteSpace=wrap;html=1;fillColor=none;align=left;verticalAlign=top;labelBackgroundColor=#FFFFFF;" vertex="1" parent="suc87e04z3GdZBgYt57A-32">
          <mxGeometry x="7" y="62" width="103" height="48" as="geometry" />
        </mxCell>
        <object label="" placeholders="1" deviceType="" Hostname="" InterfaceType="" InterfaceIP="" SubnetMaskCIDR="" RoutingProtocol="" IPnetwork="" NetworkName="" OpenPorts="" OStype="" OSVersion="" id="suc87e04z3GdZBgYt57A-36">
          <mxCell style="group;labelBackgroundColor=#FFFFFF;" vertex="1" connectable="0" parent="suc87e04z3GdZBgYt57A-32">
            <mxGeometry x="280" y="10.5" width="220" height="142" as="geometry" />
          </mxCell>
        </object>
        <mxCell id="suc87e04z3GdZBgYt57A-37" value="" style="points=[];aspect=fixed;html=1;align=center;shadow=0;dashed=0;image;image=img/lib/allied_telesis/computer_and_terminals/Personal_Computer.svg;labelBackgroundColor=#FFFFFF;" vertex="1" parent="suc87e04z3GdZBgYt57A-36">
          <mxGeometry width="45.6" height="61.800000000000004" as="geometry" />
        </mxCell>
        <mxCell id="suc87e04z3GdZBgYt57A-38" value="&lt;div&gt;&lt;span style=&quot;color: rgb(0, 0, 0);&quot;&gt;jack&lt;/span&gt;&lt;/div&gt;&lt;div&gt;&lt;span style=&quot;color: rgb(0, 0, 0);&quot;&gt;Ports: 21, 22, 80&lt;/span&gt;&lt;br&gt;&lt;/div&gt;" style="whiteSpace=wrap;html=1;fillColor=none;align=left;verticalAlign=top;labelBackgroundColor=#FFFFFF;" vertex="1" parent="suc87e04z3GdZBgYt57A-36">
          <mxGeometry x="-18" y="65" width="100" height="45" as="geometry" />
        </mxCell>
        <mxCell id="suc87e04z3GdZBgYt57A-39" value="142.16.8.55" style="text;html=1;align=center;verticalAlign=middle;resizable=0;points=[];;autosize=1;fontColor=#000000;labelBackgroundColor=#FFFFFF;" vertex="1" parent="suc87e04z3GdZBgYt57A-36">
          <mxGeometry x="45.5" y="21" width="80" height="20" as="geometry" />
        </mxCell>
        <mxCell id="suc87e04z3GdZBgYt57A-40" value="&lt;span style=&quot;color: rgb(0, 0, 0); text-align: left; white-space: normal;&quot;&gt;104.16.181.15&lt;/span&gt;" style="text;html=1;align=center;verticalAlign=middle;resizable=0;points=[];;autosize=1;labelBackgroundColor=#FFFFFF;" vertex="1" parent="suc87e04z3GdZBgYt57A-32">
          <mxGeometry x="190" y="10.5" width="90" height="20" as="geometry" />
        </mxCell>
        <mxCell id="suc87e04z3GdZBgYt57A-41" value="&lt;span style=&quot;color: rgb(0, 0, 0); text-align: left; white-space: normal;&quot;&gt;104.16.181.1&lt;/span&gt;" style="text;html=1;align=center;verticalAlign=middle;resizable=0;points=[];;autosize=1;labelBackgroundColor=#FFFFFF;" vertex="1" parent="suc87e04z3GdZBgYt57A-31">
          <mxGeometry x="-10" y="100" width="90" height="20" as="geometry" />
        </mxCell>
        <mxCell id="suc87e04z3GdZBgYt57A-42" value="&lt;span style=&quot;color: rgb(0, 0, 0); text-align: left; white-space: normal;&quot;&gt;10.50.24.91&lt;/span&gt;" style="text;html=1;align=center;verticalAlign=middle;resizable=0;points=[];;autosize=1;strokeColor=#FFFFFF;labelBackgroundColor=#FFFFFF;" vertex="1" parent="1">
          <mxGeometry x="-690" y="-2410" width="80" height="20" as="geometry" />
        </mxCell>
        <mxCell id="suc87e04z3GdZBgYt57A-43" value="ssh bill@localhost -p 2222 -L 5555:localhost:40600" style="text;html=1;align=center;verticalAlign=middle;resizable=0;points=[];;autosize=1;fontColor=#000000;strokeColor=#FFFFFF;labelBackgroundColor=#FFFFFF;" vertex="1" parent="1">
          <mxGeometry x="-828" y="-1950" width="290" height="20" as="geometry" />
        </mxCell>
        <mxCell id="suc87e04z3GdZBgYt57A-44" value="ssh john@10.50.32.91 -L 1111:104.16.181.15:22" style="text;html=1;align=center;verticalAlign=middle;resizable=0;points=[];;autosize=1;fontColor=#000000;strokeColor=#FFFFFF;labelBackgroundColor=#FFFFFF;" vertex="1" parent="1">
          <mxGeometry x="-850" y="-2300" width="270" height="20" as="geometry" />
        </mxCell>
        <mxCell id="suc87e04z3GdZBgYt57A-45" value="" style="shape=cylinder;whiteSpace=wrap;html=1;boundedLbl=1;backgroundOutline=1;fillColor=none;gradientColor=none;fontColor=#000000;strokeColor=#FFFFFF;rotation=-90;labelBackgroundColor=#FFFFFF;" vertex="1" parent="1">
          <mxGeometry x="-582" y="-2557" width="315" height="880" as="geometry" />
        </mxCell>
      </root>
    </mxGraphModel>
  </diagram>
</mxfile>
